<svg width="120" height="108" viewBox="0 0 120 108" fill="none" xmlns="http://www.w3.org/2000/svg">
<path id="logo" fill-rule="evenodd" clip-rule="evenodd" d="M95.5446 1.21363C94.8399 0.0531834 93.279 -0.344685 92.0591 0.325598L50.2922 23.2639C49.3417 23.7864 48.8481 24.8294 49.0685 25.8528L63.2257 91.6642C63.2395 91.7281 63.2211 91.7948 63.1765 91.8426L61.1319 94.0361C57.5815 97.8454 54.5736 99.9091 48.8565 99.9091C42.4461 99.9091 39.4364 96.6948 34.6708 91.0135C28.9791 84.2292 21.8971 75.7861 4.67803 75.7861H4.25224C1.90381 75.7861 0 77.5971 0 79.8311C0 82.0651 1.90381 83.8761 4.25224 83.8761H4.67803C17.8022 83.8761 22.7666 89.7939 28.023 96.0595C32.718 101.657 38.0394 108 48.8565 108C58.1947 108 63.3334 103.868 67.4952 99.4037L82.8462 82.937C82.8462 82.9361 119.358 43.7685 119.358 43.7685C120.086 42.9871 120.207 41.8499 119.658 40.9449L95.5446 1.21363Z" fill="url(#paint0_linear_125_92)"/>
<defs>
<linearGradient id="paint0_linear_125_92" x1="0" y1="0" x2="0" y2="108" gradientUnits="userSpaceOnUse">
<stop stop-color="#FF8800"/>
<stop offset="1" stop-color="#FF6600"/>
</linearGradient>
</defs>
</svg>
