<svg width="121" height="111" viewBox="0 0 121 111" fill="none" xmlns="http://www.w3.org/2000/svg">
<path fill-rule="evenodd" clip-rule="evenodd" d="M96.2135 1.59515C95.5089 0.411428 93.948 0.00558126 92.7281 0.689304L50.9611 24.0876C50.0106 24.6205 49.517 25.6845 49.7374 26.7284L63.8867 93.8215C63.9055 93.9107 63.8802 94.0035 63.8187 94.0707L61.8009 96.2789C58.2504 100.165 55.2426 102.27 49.5255 102.27C43.1151 102.27 40.1054 98.9909 35.3397 93.1957C29.6481 86.2753 22.566 77.663 5.34698 77.663H4.92119C2.57275 77.663 0.668945 79.5103 0.668945 81.7891C0.668945 84.0679 2.57275 85.9152 4.92119 85.9152H5.34698C18.4711 85.9152 23.4355 91.9517 28.6919 98.3429C33.3869 104.052 38.7084 110.523 49.5255 110.523C58.8637 110.523 64.0023 106.308 68.1641 101.754L83.5152 84.9573C83.5152 84.9563 120.027 45.0033 120.027 45.0033C120.755 44.2063 120.876 43.0463 120.327 42.1231L96.2135 1.59515Z" fill="white"/>
<path d="M89.9236 40.3488L82.1323 34.8953C81.2289 34.2682 80.8568 33.1767 81.2197 32.2506C81.6748 31.0894 83.1034 30.5404 84.4124 31.0237L89.7369 32.9896C90.7167 33.3513 91.5772 33.9707 92.1904 34.7517C92.5659 35.2246 93.2523 35.3965 93.8123 35.1874L97.5562 33.7971C98.319 33.5161 98.5598 32.6671 98.0956 31.9983C96.664 29.9041 94.5052 28.2345 91.9863 27.2963L93.3262 23.8768C93.5719 23.2499 93.1947 22.5234 92.4879 22.2625L89.918 21.3137C89.2113 21.0527 88.4321 21.3522 88.1864 21.9791L86.8464 25.3986L86.6457 25.3245C81.5299 23.4357 75.8911 25.8144 74.5532 30.6129C73.6035 34.0216 75.3836 37.7368 78.5865 39.9794L85.9807 45.1559C86.8813 45.7901 87.2562 46.8744 86.8933 47.8006C86.4383 48.9618 85.0097 49.5108 83.7006 49.0274L78.3761 47.0616C77.3963 46.6998 76.5359 46.0804 75.9226 45.2995C75.5472 44.8265 74.8607 44.6546 74.3007 44.8638L70.5568 46.2541C69.794 46.5351 69.5533 47.384 70.0174 48.0528C71.449 50.1471 73.6078 51.8167 76.1268 52.7549L74.7868 56.1744C74.5411 56.8013 74.9184 57.5277 75.6251 57.7886L78.195 58.7375C78.9018 58.9984 79.681 58.699 79.9266 58.0721L81.2722 54.6383C85.0397 55.9559 89.3226 55.2783 91.7904 52.5932C95.2367 48.8423 94.1018 43.2696 89.9236 40.3488V40.3488Z" fill="#3E3E3E"/>
</svg>
