<svg width="50" height="50" viewBox="0 0 50 50" fill="none" xmlns="http://www.w3.org/2000/svg">
<circle cx="25" cy="25" r="25" fill="url(#paint0_linear_5_468)"/>
<path d="M50 25C50 38.8071 38.8071 50 25 50C11.1929 50 0 38.8071 0 25C0 11.1929 11.1929 0 25 0C38.8071 0 50 11.1929 50 25ZM6.58358 25C6.58358 35.1711 14.8289 43.4164 25 43.4164C35.1711 43.4164 43.4164 35.1711 43.4164 25C43.4164 14.8289 35.1711 6.58358 25 6.58358C14.8289 6.58358 6.58358 14.8289 6.58358 25Z" fill="#FF9100" fill-opacity="0.5"/>
<path d="M23.5176 14.5327L20.6188 20.3503L14.133 21.2862C12.9699 21.4532 12.5038 22.8725 13.3473 23.6854L18.0396 28.2112L16.9298 34.6044C16.73 35.76 17.9597 36.6257 18.9896 36.0852L24.7917 33.0665L30.5938 36.0852C31.6237 36.6213 32.8533 35.76 32.6536 34.6044L31.5438 28.2112L36.236 23.6854C37.0795 22.8725 36.6134 21.4532 35.4503 21.2862L28.9646 20.3503L26.0657 14.5327C25.5463 13.4957 24.0414 13.4825 23.5176 14.5327Z" fill="url(#paint1_linear_5_468)"/>
<defs>
<linearGradient id="paint0_linear_5_468" x1="25" y1="0" x2="25" y2="50" gradientUnits="userSpaceOnUse">
<stop stop-color="#FABE2C"/>
<stop offset="1" stop-color="#FED843"/>
</linearGradient>
<linearGradient id="paint1_linear_5_468" x1="24.7917" y1="13.75" x2="24.7917" y2="36.25" gradientUnits="userSpaceOnUse">
<stop stop-color="#FF9100"/>
<stop offset="0.0001" stop-color="#C47104"/>
<stop offset="1" stop-color="#F4A91C"/>
</linearGradient>
</defs>
</svg>
