<svg width="151" height="61" viewBox="0 0 151 61" fill="none" xmlns="http://www.w3.org/2000/svg">
<path d="M9.39438 0.183228C11.7143 0.183228 13.7417 0.642867 15.4764 1.56214C17.232 2.48142 18.5801 3.7582 19.5206 5.39247C20.4612 7.02674 20.9314 8.88572 20.9314 10.9694C20.9314 13.0327 20.4612 14.8917 19.5206 16.5464C18.5801 18.2011 17.232 19.5085 15.4764 20.4686C13.7417 21.4083 11.7143 21.8782 9.39438 21.8782H0.145935V0.183228H9.39438ZM8.76736 15.8109C10.3349 15.8109 11.5785 15.3922 12.4981 14.5546C13.4177 13.717 13.8775 12.522 13.8775 10.9694C13.8775 9.41686 13.4177 8.2218 12.4981 7.38424C11.5785 6.54667 10.3349 6.12789 8.76736 6.12789H7.10578V15.8109H8.76736ZM22.504 13.237C22.504 11.4188 22.8175 9.84586 23.4446 8.51801C24.0925 7.16974 24.9703 6.14832 26.078 5.45375C27.1857 4.73876 28.4293 4.38126 29.8087 4.38126C30.9583 4.38126 31.951 4.61619 32.787 5.08604C33.6231 5.53547 34.2605 6.15853 34.6994 6.95524V4.59576H41.6279V21.8782H34.6994V19.5187C34.2605 20.3154 33.6231 20.9487 32.787 21.4185C31.951 21.868 30.9583 22.0927 29.8087 22.0927C28.4293 22.0927 27.1857 21.7454 26.078 21.0508C24.9703 20.3358 24.0925 19.3144 23.4446 17.9866C22.8175 16.6383 22.504 15.0551 22.504 13.237ZM34.6994 13.237C34.6994 12.3177 34.4591 11.6027 33.9784 11.092C33.4977 10.5813 32.8811 10.3259 32.1287 10.3259C31.3763 10.3259 30.7597 10.5813 30.279 11.092C29.7983 11.6027 29.5579 12.3177 29.5579 13.237C29.5579 14.1562 29.7983 14.8712 30.279 15.382C30.7597 15.8927 31.3763 16.148 32.1287 16.148C32.8811 16.148 33.4977 15.8927 33.9784 15.382C34.4591 14.8712 34.6994 14.1562 34.6994 13.237ZM57.1367 4.47319C59.164 4.47319 60.742 5.13711 61.8706 6.46496C63.0202 7.7928 63.5949 9.5905 63.5949 11.8581V21.8782H56.6664V12.716C56.6664 11.8989 56.4365 11.2554 55.9767 10.7856C55.5378 10.2953 54.9422 10.0501 54.1897 10.0501C53.4164 10.0501 52.8103 10.2953 52.3714 10.7856C51.9325 11.2554 51.713 11.8989 51.713 12.716V21.8782H44.7532V4.59576H51.713V7.23102C52.2564 6.41389 52.9775 5.74996 53.8762 5.23925C54.7959 4.72854 55.8827 4.47319 57.1367 4.47319ZM78.9965 4.47319C81.0238 4.47319 82.6018 5.13711 83.7304 6.46496C84.8799 7.7928 85.4547 9.5905 85.4547 11.8581V21.8782H78.5262V12.716C78.5262 11.8989 78.2963 11.2554 77.8365 10.7856C77.3976 10.2953 76.8019 10.0501 76.0495 10.0501C75.2762 10.0501 74.6701 10.2953 74.2312 10.7856C73.7923 11.2554 73.5728 11.8989 73.5728 12.716V21.8782H66.613V4.59576H73.5728V7.23102C74.1162 6.41389 74.8373 5.74996 75.736 5.23925C76.6556 4.72854 77.7424 4.47319 78.9965 4.47319ZM108.443 4.59576L97.1255 30.1517H89.5073L93.9591 21.0202L86.5917 4.59576H94.3353L97.6585 13.3595L100.762 4.59576H108.443ZM10.1732 41.6427C10.1732 39.4977 10.6122 37.5876 11.49 35.9125C12.3887 34.2374 13.6637 32.9402 15.3148 32.0209C16.9659 31.0812 18.9097 30.6113 21.146 30.6113C23.0689 30.6113 24.7827 30.9688 26.2875 31.6838C27.8133 32.3784 29.0464 33.3692 29.9869 34.6561C30.9483 35.9431 31.5858 37.4446 31.8993 39.1606H24.5633C24.2288 38.4456 23.7481 37.894 23.1211 37.5059C22.515 37.0973 21.8148 36.893 21.0206 36.893C19.8502 36.893 18.9201 37.322 18.2304 38.18C17.5616 39.038 17.2272 40.1922 17.2272 41.6427C17.2272 43.0931 17.5616 44.2473 18.2304 45.1053C18.9201 45.9633 19.8502 46.3923 21.0206 46.3923C21.8148 46.3923 22.515 46.1982 23.1211 45.81C23.7481 45.4015 24.2288 44.8397 24.5633 44.1247H31.8993C31.5858 45.8407 30.9483 47.3422 29.9869 48.6292C29.0464 49.9161 27.8133 50.9171 26.2875 51.6321C24.7827 52.3267 23.0689 52.674 21.146 52.674C18.9097 52.674 16.9659 52.2143 15.3148 51.2951C13.6637 50.3554 12.3887 49.0479 11.49 47.3728C10.6122 45.6977 10.1732 43.7876 10.1732 41.6427ZM33.4646 43.8796C33.4646 42.0614 33.7781 40.4884 34.4051 39.1606C35.053 37.8123 35.9309 36.7909 37.0386 36.0963C38.1463 35.3813 39.3899 35.0239 40.7693 35.0239C41.9188 35.0239 42.9116 35.2588 43.7476 35.7286C44.5836 36.1781 45.2211 36.8011 45.66 37.5978V35.2384H52.5885V52.5208H45.66V50.1613C45.2211 50.958 44.5836 51.5913 43.7476 52.0611C42.9116 52.5106 41.9188 52.7353 40.7693 52.7353C39.3899 52.7353 38.1463 52.388 37.0386 51.6934C35.9309 50.9784 35.053 49.957 34.4051 48.6292C33.7781 47.2809 33.4646 45.6977 33.4646 43.8796ZM45.66 43.8796C45.66 42.9603 45.4197 42.2453 44.939 41.7346C44.4582 41.2239 43.8417 40.9685 43.0893 40.9685C42.3368 40.9685 41.7203 41.2239 41.2396 41.7346C40.7589 42.2453 40.5185 42.9603 40.5185 43.8796C40.5185 44.7988 40.7589 45.5138 41.2396 46.0245C41.7203 46.5352 42.3368 46.7906 43.0893 46.7906C43.8417 46.7906 44.4582 46.5352 44.939 46.0245C45.4197 45.5138 45.66 44.7988 45.66 43.8796ZM62.6736 38.4252C63.3842 37.4242 64.2516 36.6275 65.2757 36.0351C66.2998 35.4222 67.3658 35.1158 68.4735 35.1158V42.3781H66.4984C65.1817 42.3781 64.2098 42.6028 63.5828 43.0522C62.9767 43.5016 62.6736 44.2983 62.6736 45.4423V52.5208H55.7138V35.2384H62.6736V38.4252ZM79.3144 46.0552L82.136 35.2384H89.5347L83.6408 52.5208H74.9567L69.0627 35.2384H76.4615L79.3144 46.0552ZM90.4408 43.8796C90.4408 42.0614 90.7543 40.4884 91.3813 39.1606C92.0292 37.8123 92.907 36.7909 94.0147 36.0963C95.1225 35.3813 96.366 35.0239 97.7455 35.0239C98.895 35.0239 99.8878 35.2588 100.724 35.7286C101.56 36.1781 102.197 36.8011 102.636 37.5978V35.2384H109.565V52.5208H102.636V50.1613C102.197 50.958 101.56 51.5913 100.724 52.0611C99.8878 52.5106 98.895 52.7353 97.7455 52.7353C96.366 52.7353 95.1225 52.388 94.0147 51.6934C92.907 50.9784 92.0292 49.957 91.3813 48.6292C90.7543 47.2809 90.4408 45.6977 90.4408 43.8796ZM102.636 43.8796C102.636 42.9603 102.396 42.2453 101.915 41.7346C101.434 41.2239 100.818 40.9685 100.065 40.9685C99.313 40.9685 98.6964 41.2239 98.2157 41.7346C97.735 42.2453 97.4947 42.9603 97.4947 43.8796C97.4947 44.7988 97.735 45.5138 98.2157 46.0245C98.6964 46.5352 99.313 46.7906 100.065 46.7906C100.818 46.7906 101.434 46.5352 101.915 46.0245C102.396 45.5138 102.636 44.7988 102.636 43.8796ZM116.138 33.8594C114.926 33.8594 113.954 33.5428 113.223 32.9095C112.491 32.2762 112.126 31.4795 112.126 30.5194C112.126 29.5388 112.491 28.7319 113.223 28.0986C113.954 27.4449 114.926 27.1181 116.138 27.1181C117.33 27.1181 118.291 27.4449 119.023 28.0986C119.754 28.7319 120.12 29.5388 120.12 30.5194C120.12 31.4795 119.754 32.2762 119.023 32.9095C118.291 33.5428 117.33 33.8594 116.138 33.8594ZM119.65 53.7158C119.65 58.4348 117.225 60.7943 112.376 60.7943H110.056V55.0028H111.405C111.864 55.0028 112.188 54.9109 112.376 54.727C112.585 54.5432 112.69 54.247 112.69 53.8384V35.2384H119.65V53.7158ZM121.791 43.8796C121.791 42.0614 122.105 40.4884 122.732 39.1606C123.38 37.8123 124.258 36.7909 125.365 36.0963C126.473 35.3813 127.717 35.0239 129.096 35.0239C130.246 35.0239 131.239 35.2588 132.075 35.7286C132.911 36.1781 133.548 36.8011 133.987 37.5978V35.2384H140.916V52.5208H133.987V50.1613C133.548 50.958 132.911 51.5913 132.075 52.0611C131.239 52.5106 130.246 52.7353 129.096 52.7353C127.717 52.7353 126.473 52.388 125.365 51.6934C124.258 50.9784 123.38 49.957 122.732 48.6292C122.105 47.2809 121.791 45.6977 121.791 43.8796ZM133.987 43.8796C133.987 42.9603 133.747 42.2453 133.266 41.7346C132.785 41.2239 132.169 40.9685 131.416 40.9685C130.664 40.9685 130.047 41.2239 129.566 41.7346C129.086 42.2453 128.845 42.9603 128.845 43.8796C128.845 44.7988 129.086 45.5138 129.566 46.0245C130.047 46.5352 130.664 46.7906 131.416 46.7906C132.169 46.7906 132.785 46.5352 133.266 46.0245C133.747 45.5138 133.987 44.7988 133.987 43.8796ZM151 29.8453V52.5208H144.04V29.8453H151Z" fill="white"/>
</svg>
