<svg width="50" height="50" viewBox="0 0 50 50" fill="none" xmlns="http://www.w3.org/2000/svg">
<circle cx="25" cy="25" r="25" fill="white"/>
<path d="M34.0659 23.107H32.8297V19.3885C32.8297 15.0607 29.3166 11.5385 25 11.5385C20.6834 11.5385 17.1703 15.0607 17.1703 19.3885V23.107H15.9341C14.569 23.107 13.4615 24.2173 13.4615 25.5859V35.5018C13.4615 36.8704 14.569 37.9808 15.9341 37.9808H34.0659C35.431 37.9808 36.5385 36.8704 36.5385 35.5018V25.5859C36.5385 24.2173 35.431 23.107 34.0659 23.107ZM28.7088 23.107H21.2912V19.3885C21.2912 17.3382 22.955 15.6701 25 15.6701C27.045 15.6701 28.7088 17.3382 28.7088 19.3885V23.107Z" fill="#F63D15"/>
<rect x="23.5577" y="26.4423" width="3.36538" height="5.76923" rx="1.68269" fill="white"/>
</svg>
